<svg width="200" height="47" viewBox="0 0 200 47" xmlns="http://www.w3.org/2000/svg"><path fill="#333" d="M4.575 11.168V41.88h21.957V11.17H4.575zm5.565-4.653c-.05-.303-.076-.614-.076-.93C10.064 2.5 12.522 0 15.554 0c3.03 0 5.49 2.5 5.49 5.584 0 .317-.027.628-.077.93h5.565c2.527 0 4.575 2.084 4.575 4.654V41.88c0 2.57-2.048 4.655-4.575 4.655H4.575C2.048 46.535 0 44.45 0 41.88V11.17C0 8.6 2.048 6.517 4.575 6.517h5.565zm5.413.93c1.01 0 1.83-.833 1.83-1.86 0-1.03-.82-1.862-1.83-1.862-1.01 0-1.83.833-1.83 1.86 0 1.03.82 1.863 1.83 1.863zm1.404 21.26l21.35-21.348 3.29 3.29-21.35 21.35-3.29-3.29zM14.2 35.13l1.025-5.556 4.53 4.53L14.2 35.13zm59.43-3.95c0 1.818-.255 3.436-.763 4.853-.508 1.418-1.232 2.612-2.172 3.583-.94.97-2.077 1.706-3.412 2.207-1.334.5-2.828.75-4.48.75-1.502 0-2.886-.238-4.152-.715-1.26-.478-2.35-1.183-3.27-2.115-.91-.932-1.63-2.088-2.14-3.467-.51-1.38-.76-2.97-.76-4.773V12.736c0-.092.03-.177.07-.254.05-.077.13-.14.24-.185.12-.046.26-.085.42-.115.17-.03.39-.047.66-.047.26 0 .48.016.66.047.18.03.33.07.43.115.11.046.18.108.23.185.05.077.07.162.07.254V31.04c0 1.496.18 2.806.54 3.93.36 1.125.87 2.06 1.55 2.808.68.748 1.5 1.31 2.46 1.688.97.377 2.05.566 3.27.566 1.23 0 2.33-.18 3.29-.543.97-.37 1.78-.92 2.45-1.66.667-.74 1.18-1.66 1.535-2.76.357-1.1.535-2.39.535-3.87V12.73c0-.092.023-.177.07-.254.044-.074.12-.14.226-.18.11-.048.25-.087.436-.117s.4-.05.66-.05.476.01.66.04c.18.03.324.07.43.11.105.04.18.1.226.18.045.08.07.16.07.25v18.44zm13.168 10.54c0 .092-.023.176-.068.253-.046.077-.122.14-.228.185-.106.046-.246.085-.42.116-.175.03-.4.046-.672.046-.257 0-.477-.015-.66-.046-.18-.03-.325-.07-.43-.116-.108-.046-.183-.108-.23-.185-.044-.077-.067-.16-.067-.254V12.73c0-.092.026-.177.08-.254.053-.077.136-.14.25-.185.113-.04.257-.08.432-.11.174-.03.383-.04.625-.04.273 0 .497.02.67.05.176.03.316.07.422.12.106.05.182.11.228.19.045.08.068.17.068.26v28.98zm31.593-.902c0 .277-.04.508-.12.693-.08.19-.19.34-.32.46-.12.12-.27.2-.43.24-.16.05-.31.07-.44.07h-.57c-.3 0-.58-.04-.83-.11s-.49-.21-.72-.4c-.23-.19-.47-.45-.7-.77s-.49-.74-.78-1.25L103.1 21.08c-.516-.91-1.035-1.848-1.56-2.81-.52-.966-1.02-1.9-1.49-2.81h-.02c.014 1.123.022 2.275.022 3.454v22.82c0 .09-.02.177-.07.254-.042.075-.12.14-.224.183-.104.05-.245.09-.42.12-.173.03-.4.05-.67.05-.26 0-.48-.01-.66-.04-.182-.03-.326-.07-.432-.112-.105-.045-.18-.107-.226-.184-.046-.072-.07-.16-.07-.25v-28c0-.552.146-.933.434-1.14.29-.21.57-.313.84-.313h1.14c.365 0 .668.03.91.095.245.06.465.168.66.315.2.14.39.35.58.62.19.27.4.61.628 1.03l7.94 14.3c.5.892.975 1.75 1.422 2.576.45.82.883 1.63 1.31 2.423.423.792.844 1.574 1.26 2.344.417.77.83 1.55 1.24 2.337h.023c-.02-1.294-.024-2.642-.024-4.044V12.83c0-.094.024-.178.07-.255.045-.077.12-.143.227-.197.11-.054.25-.092.42-.115.178-.024.4-.035.67-.035.247 0 .46.01.64.035.18.023.327.06.434.115.11.054.188.12.24.197.056.077.08.16.08.254v27.98zm34.15-13.938c0 2.39-.27 4.55-.8 6.49-.54 1.934-1.34 3.58-2.42 4.946-1.07 1.365-2.43 2.416-4.07 3.156-1.63.74-3.54 1.11-5.73 1.11s-4.06-.35-5.63-1.052c-1.57-.7-2.86-1.703-3.86-3.005-1.01-1.302-1.75-2.893-2.23-4.773s-.72-4-.72-6.357c0-2.342.27-4.47.8-6.38.53-1.91 1.34-3.54 2.42-4.887 1.08-1.348 2.44-2.392 4.07-3.13 1.63-.74 3.55-1.11 5.75-1.11 2.14 0 3.99.346 5.55 1.04 1.56.693 2.854 1.686 3.88 2.98 1.02 1.295 1.78 2.867 2.27 4.716.496 1.85.74 3.936.74 6.263zm-2.95.26c0-1.77-.16-3.43-.49-4.98-.32-1.55-.86-2.896-1.61-4.044-.75-1.147-1.74-2.05-2.99-2.703-1.24-.655-2.78-.982-4.62-.982-1.82 0-3.35.35-4.6 1.03-1.25.69-2.26 1.61-3.05 2.76-.78 1.16-1.34 2.51-1.68 4.05-.34 1.54-.51 3.17-.51 4.88 0 1.82.16 3.51.47 5.08.31 1.57.84 2.93 1.58 4.08.74 1.16 1.74 2.06 2.98 2.72 1.24.66 2.8.98 4.66.98 1.85 0 3.41-.35 4.67-1.05 1.258-.7 2.274-1.64 3.048-2.82.77-1.18 1.326-2.54 1.66-4.09.333-1.55.5-3.18.5-4.89zm28.09-13.566c0 .2-.01.378-.04.53-.03.156-.07.28-.13.38-.06.1-.13.18-.22.234-.09.054-.19.08-.295.08h-8.78V41.72c0 .092-.024.176-.07.253-.045.077-.12.14-.227.185-.106.046-.25.085-.432.116-.18.03-.4.046-.66.046s-.473-.015-.66-.046c-.18-.03-.32-.07-.43-.116-.102-.046-.18-.108-.223-.185-.047-.077-.07-.16-.07-.254V14.79h-8.78c-.12 0-.223-.027-.307-.08-.08-.054-.156-.132-.217-.232-.06-.1-.107-.226-.137-.38-.03-.154-.048-.33-.048-.532 0-.215.012-.404.043-.566.03-.162.075-.296.136-.404.06-.108.13-.19.215-.243.08-.054.182-.08.303-.08h20.333c.107 0 .205.026.296.08.09.054.166.135.23.243.06.108.105.242.135.404.03.162.048.35.048.566zM200 40.934c0 .2-.015.38-.045.53-.03.155-.08.286-.148.394-.07.108-.148.19-.24.242-.09.052-.19.08-.295.08h-13.784c-.273 0-.554-.105-.842-.31-.288-.21-.432-.59-.432-1.147V13.73c0-.555.144-.936.432-1.144.288-.208.57-.312.842-.312h13.58c.106 0 .204.027.295.08.09.055.167.136.228.244.06.108.11.242.14.404.03.162.05.35.05.566 0 .2-.01.378-.04.532-.03.154-.07.28-.13.38-.06.1-.13.18-.22.232-.09.054-.19.08-.29.08H187V25.31h10.417c.12 0 .23.026.32.08.09.054.167.13.228.23.06.102.106.233.136.394.03.162.04.35.04.567 0 .2-.01.38-.04.52-.03.15-.08.27-.14.36-.06.09-.14.16-.23.21-.09.05-.19.07-.31.07H187v11.92h12.28c.107 0 .206.03.297.08.09.06.17.14.24.24.068.1.117.23.148.4.03.16.046.35.046.57z"/></svg>